# xmcd
#
# Track frame offsets: 
#        150
#        88402
#        170980
#        189429
#        206453
#        226752
#        244036
#        260597
#        291934
#        304418
#        329511
#
# Disc length: 4607 seconds
#
# Revision: 1
# Processed by: cddbd v1.5.2PL0 Copyright (c) Steve Scherf et al.
# Submitted via: ExactAudioCopy v1.1
#
DISCID=a611fd0b
DTITLE=Dexter Gordon - Jazz Concert West Coast - Dexter Blows Hot And 
DTITLE=Cool
DYEAR=1947
DGENRE=Jazz
TTITLE0=Disorder At The Border (Bopera) (live) (mono)
TTITLE1=Rocks and Shoals (The Hunt) (live) (mono)
TTITLE2=Silver Plated (mono)
TTITLE3=Cry Me A River (mono)
TTITLE4=Rhythm Mad (mono)
TTITLE5=Don't Worry About Me (mono)
TTITLE6=I Hear Music (mono)
TTITLE7=Bonna Rue (mono)
TTITLE8=I Should Care (mono)
TTITLE9=Blowin' For Dootsie (mono)
TTITLE10=Tenderly (mono)
EXTD=YEAR: 1947
EXTT0=
EXTT1=
EXTT2=
EXTT3=
EXTT4=
EXTT5=
EXTT6=
EXTT7=
EXTT8=
EXTT9=
EXTT10=
PLAYORDER=
